<svg xmlns:xlink="http://www.w3.org/1999/xlink" data-v-2ee4f71e="" width="17" height="18" viewBox="0 0 17 18" fill="none" xmlns="http://www.w3.org/2000/svg" class="footer__links-social-item--instagram"><path data-v-2ee4f71e="" d="M8.5 2.2h3.4c.8 0 1.2.2 1.5.3.4.2.7.3 1 .6.3.3.5.6.6 1 .1.3.2.7.3 1.5v6.8c0 .8-.2 1.2-.3 1.5-.2.4-.3.7-.6 1-.3.3-.6.5-1 .6-.3.1-.7.2-1.5.3H5.1c-.8 0-1.2-.2-1.5-.3-.4-.2-.7-.3-1-.6-.3-.3-.5-.6-.6-1-.1-.3-.2-.7-.3-1.5V9 5.6c0-.8.2-1.2.3-1.5.2-.4.3-.7.6-1 .3-.3.6-.5 1-.6.3-.1.7-.2 1.5-.3h3.4zm0-1.5H5.1c-.9 0-1.5.2-2 .4s-1 .5-1.5 1-.7.9-1 1.5c-.2.5-.3 1.1-.4 2v6.8c0 .9.2 1.5.4 2s.5 1 1 1.5.9.7 1.5 1c.5.2 1.1.3 2 .4h6.8c.9 0 1.5-.2 2-.4s1-.5 1.5-1 .7-.9 1-1.5c.2-.5.3-1.1.4-2V9 5.6c0-.9-.2-1.5-.4-2s-.5-1-1-1.5-.9-.7-1.5-1c-.5-.2-1.1-.3-2-.4H8.5z" fill="#FFFFFF"></path><path data-v-2ee4f71e="" d="M8.5 4.7C6.1 4.7 4.2 6.6 4.2 9s1.9 4.3 4.3 4.3 4.3-1.9 4.3-4.3-1.9-4.3-4.3-4.3zm0 7.1C7 11.8 5.7 10.6 5.7 9c0-1.5 1.2-2.8 2.8-2.8 1.5 0 2.8 1.2 2.8 2.8 0 1.5-1.3 2.8-2.8 2.8zM12.9 5.6a1 1 0 100-2 1 1 0 000 2z" fill="#FFFFFF"></path></svg>